<?xml version="1.0" standalone="no"?>
<!DOCTYPE svg PUBLIC "-//W3C//DTD SVG 20010904//EN"
 "http://www.w3.org/TR/2001/REC-SVG-20010904/DTD/svg10.dtd">
<svg version="1.0" xmlns="http://www.w3.org/2000/svg"
 width="537.000000pt" height="607.000000pt" viewBox="0 0 537.000000 607.000000"
 preserveAspectRatio="xMidYMid meet">
<metadata>
Created by potrace 1.16, written by Peter Selinger 2001-2019
</metadata>
<g transform="translate(0.000000,607.000000) scale(0.100000,-0.100000)"
fill="#000000" stroke="none">
<path d="M2365 5620 c4 -6 -4 -10 -18 -10 -14 0 -38 -7 -53 -15 -16 -8 -39
-15 -51 -15 -12 0 -42 -6 -65 -14 -24 -7 -62 -19 -85 -26 -24 -7 -43 -16 -43
-20 0 -4 -12 -12 -26 -18 -14 -7 -22 -17 -19 -22 3 -6 -1 -10 -9 -10 -9 0 -16
-4 -16 -10 0 -5 -8 -10 -18 -10 -10 0 -28 -9 -40 -21 -12 -11 -37 -26 -55 -34
-17 -8 -28 -14 -23 -15 12 0 -62 -50 -74 -50 -6 0 -10 -6 -10 -14 0 -8 -7 -22
-16 -30 -8 -9 -17 -26 -18 -38 -4 -34 -60 -120 -96 -146 -17 -13 -28 -27 -25
-32 3 -4 -19 -32 -49 -62 -30 -29 -58 -64 -62 -78 l-7 -24 28 18 28 19 -21
-31 c-12 -16 -22 -35 -22 -41 0 -7 -9 -30 -20 -51 -11 -22 -21 -52 -21 -67 -1
-16 -12 -57 -25 -93 -12 -36 -26 -85 -30 -110 -3 -25 -11 -56 -17 -70 -6 -14
-12 -35 -13 -48 -2 -13 -7 -29 -11 -35 -14 -19 -16 -78 -3 -75 17 4 17 -87 0
-107 -9 -11 -9 -15 -1 -15 9 0 9 -5 1 -20 -9 -16 -8 -19 6 -13 13 5 15 2 9
-16 -5 -17 -1 -27 15 -38 15 -11 20 -21 15 -37 -16 -57 -16 -69 1 -62 12 5 15
2 10 -10 -4 -11 -2 -15 8 -11 12 5 14 -5 11 -48 -1 -30 1 -52 6 -49 5 3 9 0 9
-6 0 -7 7 -9 16 -6 17 7 17 -4 -2 -79 -5 -19 -3 -26 4 -21 6 4 16 -3 23 -15 9
-17 8 -32 -6 -74 -17 -49 -17 -55 0 -131 9 -43 30 -118 46 -165 16 -47 36
-116 44 -154 23 -98 38 -130 110 -232 22 -32 79 -31 128 3 21 14 40 24 42 22
2 -2 29 -59 60 -128 45 -99 59 -141 66 -203 8 -71 7 -81 -10 -103 -17 -21 -19
-38 -16 -102 6 -144 26 -276 42 -285 12 -8 12 -11 -4 -22 -17 -13 -17 -14 2
-37 11 -12 16 -20 11 -16 -10 9 -41 -30 -32 -39 3 -3 14 0 23 8 10 7 15 9 11
5 -4 -5 -3 -15 2 -21 14 -17 2 -45 -16 -38 -8 3 -14 0 -14 -6 0 -6 5 -11 10
-11 6 0 10 -12 10 -26 0 -19 -4 -25 -17 -22 -10 2 -18 11 -18 21 0 10 -6 22
-14 26 -11 7 -9 11 8 20 11 7 21 17 21 23 0 7 -4 7 -14 -1 -11 -9 -15 -9 -19
1 -7 21 -20 0 -20 -33 0 -23 -3 -27 -9 -15 -5 9 -15 16 -22 16 -23 0 -26 26
-5 43 10 9 19 25 20 34 0 10 2 28 5 40 3 16 0 21 -10 17 -8 -3 -17 -1 -21 5
-3 6 -13 11 -20 11 -11 0 -12 -6 -5 -25 9 -23 8 -25 -23 -25 -22 0 -28 -3 -18
-9 7 -5 11 -14 7 -20 -5 -7 -1 -9 8 -5 9 3 16 1 16 -5 0 -6 -15 -12 -32 -12
l-33 -1 30 -8 c17 -4 22 -8 13 -9 -19 -1 -25 -36 -8 -46 17 -10 0 -26 -21 -20
-25 8 -24 -1 4 -28 13 -12 22 -28 20 -34 -3 -7 3 -13 12 -13 9 0 13 -5 9 -11
-3 -6 -15 -9 -25 -6 -20 5 -23 -1 -13 -27 3 -9 15 -16 25 -16 27 0 24 -13 -12
-48 -19 -18 -26 -32 -20 -37 6 -3 11 -1 11 5 0 15 40 3 66 -21 20 -19 21 -19
33 3 15 30 71 35 71 7 0 -12 10 -21 25 -25 14 -3 25 -10 25 -15 0 -5 6 -9 14
-9 8 0 17 -4 20 -9 4 -5 -2 -7 -13 -4 -10 3 -22 0 -25 -6 -4 -6 -2 -11 4 -11
6 0 9 -4 6 -9 -16 -24 -70 13 -71 49 0 21 -45 26 -45 6 0 -9 7 -16 15 -16 8 0
15 -4 15 -10 0 -5 -13 -10 -30 -10 -20 0 -30 5 -30 15 0 9 -6 12 -15 9 -8 -4
-15 -10 -15 -15 0 -5 7 -9 15 -9 8 0 15 -4 15 -9 0 -17 -20 -23 -35 -11 -8 7
-15 9 -15 5 0 -4 8 -13 17 -20 14 -10 22 -9 44 7 25 19 29 19 58 5 17 -8 48
-18 71 -22 22 -4 40 -11 40 -16 0 -12 -37 -12 -45 1 -13 21 -21 8 -20 -29 1
-22 -2 -38 -6 -35 -4 2 -10 -5 -14 -16 -3 -11 -10 -20 -15 -20 -5 0 -10 -10
-12 -22 -2 -17 -10 -23 -31 -24 -30 -1 -51 -14 -23 -14 9 0 14 -4 11 -10 -3
-5 -15 -10 -26 -10 -23 0 -24 -4 -3 -36 9 -13 15 -26 13 -27 -44 -25 -46 -25
-57 -6 -7 10 -12 28 -12 39 0 11 -5 40 -12 65 -9 35 -10 53 -1 76 10 26 10 30
-3 25 -11 -4 -14 4 -14 38 0 23 -3 46 -7 50 -5 4 -9 38 -11 74 -3 96 -5 106
-15 113 -11 7 -16 45 -21 152 -4 79 -11 91 -28 51 -16 -40 -16 -58 2 -65 10
-4 2 -10 -24 -19 -32 -10 -40 -10 -48 1 -8 11 -9 10 -5 -3 7 -19 -19 -44 -42
-40 -9 1 -22 -7 -29 -18 -10 -17 -10 -20 3 -20 8 0 15 8 15 18 0 14 2 15 10 2
17 -27 11 -29 -69 -24 l-80 5 -41 -37 c-23 -21 -46 -47 -52 -58 -6 -12 8 -3
33 20 24 23 55 45 67 49 32 9 92 -3 89 -18 -1 -7 11 -13 28 -15 26 -2 34 3 55
38 16 26 32 40 45 40 20 -1 20 -1 0 -12 -40 -22 -61 -64 -26 -53 14 4 23 0 30
-14 14 -25 14 -34 1 -26 -5 3 -7 0 -4 -9 3 -8 0 -16 -8 -19 -7 -2 -5 -3 4 -2
20 3 25 -9 22 -50 -1 -16 -3 -36 -3 -42 -1 -18 -21 -16 -21 2 0 18 -16 20 -26
4 -5 -8 -10 -6 -16 5 -5 9 -14 16 -20 16 -7 0 -21 9 -32 19 -25 23 -86 38 -86
21 0 -6 7 -10 16 -8 9 2 20 -4 24 -12 4 -8 12 -25 18 -37 7 -13 12 -32 12 -43
0 -11 8 -32 17 -47 16 -23 17 -24 24 -7 7 17 8 16 8 -5 1 -19 5 -22 23 -18 35
9 78 -22 78 -56 0 -22 4 -28 15 -23 9 3 15 0 15 -10 0 -10 -6 -14 -14 -11 -10
4 -12 0 -8 -16 3 -12 7 -16 10 -9 6 20 32 14 32 -8 0 -11 -5 -19 -12 -17 -7 1
-13 -8 -14 -20 -1 -20 3 -22 30 -18 17 2 25 2 19 -1 -21 -9 -15 -24 10 -24 21
-1 22 -1 3 -15 -11 -8 -14 -15 -8 -15 7 0 12 -6 12 -13 0 -17 62 -47 96 -47
14 0 35 -10 46 -22 11 -13 17 -17 13 -11 -4 9 3 13 22 12 24 0 25 -2 8 -8 -16
-6 -9 -11 34 -20 43 -9 56 -9 62 1 6 9 10 8 15 -5 3 -9 13 -17 21 -17 9 0 22
-8 29 -17 13 -17 13 -17 14 0 0 17 1 17 33 0 17 -10 35 -23 40 -30 4 -6 25
-14 46 -18 51 -8 74 -26 65 -48 -3 -10 -11 -17 -18 -16 -6 1 -19 -1 -30 -6
-11 -5 -21 -3 -26 5 -4 7 -13 9 -19 6 -6 -4 -11 0 -11 11 0 14 -2 15 -9 5 -11
-18 -116 -6 -137 15 -7 8 -14 10 -14 4 0 -6 -11 -11 -25 -11 -14 0 -26 -3 -26
-7 -8 -47 -6 -53 22 -53 15 0 30 -4 33 -9 3 -5 16 -7 28 -3 17 4 20 2 15 -12
-4 -11 -3 -15 4 -11 15 10 59 -3 56 -17 -3 -16 64 -29 80 -16 10 8 13 6 13 -7
0 -14 6 -16 30 -12 23 5 35 1 59 -24 24 -23 36 -28 56 -23 14 3 25 12 25 19 0
7 7 15 15 19 8 3 15 1 15 -4 0 -6 11 -10 25 -10 29 0 34 -16 8 -23 -10 -3 1
-5 24 -4 30 1 52 -6 74 -22 17 -13 49 -26 70 -28 33 -5 37 -8 29 -24 -14 -24
-12 -39 3 -39 6 0 18 -4 26 -9 12 -8 13 -12 1 -25 -17 -22 -5 -33 16 -15 15
13 17 11 12 -18 -3 -19 0 -31 6 -30 6 1 11 -5 11 -13 0 -8 4 -21 9 -28 5 -8
10 -46 11 -85 3 -76 12 -117 25 -117 4 0 8 -19 7 -42 -1 -122 22 -386 34 -394
5 -3 9 -16 9 -30 0 -20 5 -24 31 -24 l31 0 -6 68 c-3 37 -10 123 -16 192 -5
69 -16 188 -25 265 -10 96 -11 153 -5 180 5 22 10 63 11 90 2 73 11 97 48 122
57 39 120 97 114 107 -3 5 0 7 8 4 14 -5 39 14 39 30 0 5 11 21 25 36 17 18
32 25 48 22 21 -4 24 -1 21 24 -3 23 2 31 24 41 15 6 35 22 45 35 17 23 17 24
-3 24 -17 0 -19 3 -8 19 11 18 13 18 24 3 11 -14 16 -15 33 -5 11 7 27 10 35
7 11 -4 13 0 10 18 -2 13 -2 17 2 11 3 -7 10 -13 15 -13 6 0 7 4 4 10 -3 5 1
10 11 10 12 0 15 -6 11 -21 -4 -16 4 -11 29 17 39 43 54 73 54 110 0 16 17 41
48 72 26 26 36 37 21 24 -26 -23 -49 -16 -33 10 5 7 3 8 -5 3 -9 -5 -12 0 -9
16 2 17 14 28 47 40 31 11 39 18 27 22 -21 8 -20 15 6 57 12 19 21 49 21 65 0
28 0 28 4 3 6 -39 33 -25 33 17 0 19 -4 37 -10 40 -17 11 -5 157 22 254 20 71
25 111 22 160 -3 49 -1 62 7 51 17 -23 2 92 -16 126 -12 24 -15 25 -15 9 -1
-11 -10 2 -20 30 -13 31 -16 51 -9 55 6 5 6 16 -2 36 -7 16 -13 31 -14 34 -17
74 -125 159 -125 100 0 -12 7 -20 18 -20 14 0 15 -2 2 -10 -12 -8 -13 -11 -1
-19 11 -7 11 -9 0 -13 -11 -4 -15 -36 -18 -134 -3 -115 -5 -131 -25 -152 -28
-31 -89 -62 -121 -62 -35 0 -68 35 -61 65 4 14 1 25 -7 29 -8 3 -4 12 13 26
l25 22 -29 23 c-23 18 -25 23 -12 28 9 4 24 3 33 0 15 -6 16 -4 5 9 -8 10 -10
26 -6 42 6 24 4 26 -26 26 -32 0 -54 15 -56 38 -1 6 -2 19 -2 27 -1 9 -12 15
-27 15 -14 0 -25 4 -25 10 0 5 -13 7 -30 4 -42 -9 -66 2 -50 21 7 8 9 15 4 15
-4 0 -3 5 3 11 7 7 8 21 3 40 -7 22 -5 29 6 29 8 0 13 6 12 12 -2 7 8 14 21
16 13 2 38 19 55 37 42 44 68 135 87 309 6 51 19 104 30 125 28 53 27 167 -3
218 -30 51 -50 73 -65 73 -6 0 -18 9 -26 21 -11 15 -16 17 -20 7 -3 -7 -6 -3
-6 10 -1 14 -8 22 -18 23 -12 1 -10 4 7 9 22 7 20 8 -14 9 -54 1 -42 9 51 32
102 26 178 76 203 132 24 55 29 87 39 240 4 70 12 132 18 138 5 5 20 11 32 12
14 1 21 8 21 22 0 38 -19 45 -129 45 -62 0 -100 4 -93 9 17 11 17 21 0 32 -10
7 -10 9 2 10 10 0 9 3 -5 9 -11 5 -94 9 -185 9 -340 0 -320 -1 -320 20 0 12
-9 20 -29 24 -40 8 -94 67 -61 67 6 0 10 6 10 14 0 8 7 16 15 20 8 3 15 14 15
25 0 23 28 53 85 88 22 14 42 28 45 30 2 2 -9 15 -25 29 l-30 25 29 -6 c27 -6
28 -4 23 21 -3 20 0 28 14 31 11 3 19 9 19 14 0 5 6 9 13 9 18 0 40 57 33 85
-5 19 -3 23 9 18 16 -6 60 32 60 51 0 5 16 14 35 19 19 5 40 13 47 19 6 5 28
11 47 14 28 3 41 -1 58 -18 25 -25 58 -85 58 -105 0 -8 7 -16 15 -19 8 -4 15
-17 15 -30 0 -13 4 -24 9 -24 8 0 22 -46 35 -110 2 -14 12 -47 21 -75 9 -27
21 -66 27 -85 6 -19 29 -74 51 -122 37 -79 43 -87 74 -93 33 -6 48 -25 73 -90
12 -30 7 -32 -18 -4 -14 15 -26 18 -46 13 -27 -6 -35 -31 -16 -50 6 -6 22 -57
36 -115 14 -57 30 -111 35 -119 12 -19 0 88 -12 112 -5 9 -9 31 -9 48 0 32 0
32 25 16 34 -22 48 -20 42 6 -4 14 1 27 14 39 18 15 20 25 14 60 -5 29 -10 38
-16 28 -7 -11 -9 -10 -9 4 0 9 -6 17 -13 17 -17 0 -40 60 -24 60 7 0 4 5 -5
11 -13 7 -17 19 -13 44 3 24 -1 37 -12 43 -13 8 -13 12 -2 30 11 18 11 26 2
41 -11 17 -9 21 7 26 11 3 24 3 30 0 5 -3 10 1 10 9 0 9 -4 16 -10 16 -19 0
-11 89 9 109 12 12 16 23 10 32 -5 8 -9 25 -9 38 0 13 -3 21 -7 18 -9 -10 -32
26 -25 38 10 15 11 95 1 95 -4 0 -11 9 -14 20 -10 32 -25 23 -20 -12 4 -30 3
-29 -6 5 -8 26 -16 37 -25 33 -9 -4 -14 2 -14 16 0 16 -3 18 -14 9 -11 -9 -15
-8 -20 4 -3 9 -10 13 -16 10 -5 -3 -10 3 -10 14 0 12 -5 21 -10 21 -21 0 -36
24 -32 51 4 29 -14 73 -27 65 -4 -3 -6 6 -3 20 2 14 11 28 18 31 8 3 11 10 8
15 -4 6 -10 5 -15 -3 -6 -10 -9 -11 -9 -1 0 6 -4 12 -10 12 -5 0 -7 -14 -4
-32 4 -25 3 -29 -5 -18 -6 8 -11 23 -11 33 0 11 -9 21 -21 24 -12 3 -18 11
-15 19 3 8 2 14 -3 14 -5 0 -18 22 -30 49 -24 57 -28 86 -7 58 12 -16 14 -16
20 -2 5 15 8 15 21 1 18 -18 20 -53 3 -59 -10 -4 -10 -7 0 -18 6 -7 12 -22 12
-33 0 -17 14 -15 15 2 1 4 6 16 12 27 22 39 22 81 1 94 -11 7 -17 19 -14 27 4
9 -1 14 -14 14 -11 0 -19 6 -17 12 1 7 -8 14 -21 16 -22 3 -23 4 -5 18 10 8
14 13 8 12 -19 -4 -105 13 -105 21 0 17 -40 19 -49 3 -9 -15 -11 -15 -25 3
l-15 20 -1 -20 c0 -15 -2 -17 -9 -6 -5 8 -14 10 -22 5 -11 -6 -11 -4 0 10 10
12 22 15 44 10 l30 -6 -26 26 c-24 24 -56 28 -42 6 3 -5 1 -11 -5 -15 -5 -3
-10 -1 -10 4 0 18 -28 12 -49 -10 -17 -18 -18 -24 -6 -35 7 -8 19 -14 26 -14
19 0 5 -10 -21 -15 -16 -3 -20 0 -16 10 3 8 1 17 -4 20 -15 9 -12 24 10 42 11
10 20 23 20 29 0 7 6 14 13 17 6 2 -12 7 -42 11 -29 4 -56 5 -59 1 -3 -3 4
-15 16 -28 31 -33 27 -51 -4 -22 -15 14 -33 25 -41 25 -8 0 -11 5 -8 10 4 6
-13 19 -37 29 -24 11 -36 20 -28 20 27 2 -11 21 -42 21 -35 0 -59 10 -52 21 3
5 -2 9 -11 9 -9 0 -13 5 -10 10 4 6 -6 10 -22 10 -20 0 -24 3 -14 9 26 16 -90
43 -242 56 -46 4 -67 2 -62 -5z m1012 -1500 c50 -30 58 -53 57 -170 -1 -127
-21 -203 -64 -247 -59 -60 -218 -101 -340 -87 l-65 8 50 8 c28 5 66 6 85 3 44
-6 87 4 68 16 -9 6 -7 9 10 9 12 0 22 4 22 10 0 5 6 7 14 4 9 -3 27 8 44 27
35 39 31 62 -20 109 -18 16 -28 30 -21 30 7 0 10 7 7 15 -4 8 -2 15 3 15 5 0
23 13 41 29 17 16 41 32 52 36 36 11 18 38 -45 69 -39 19 -54 31 -43 33 10 3
40 -8 67 -24 28 -15 53 -25 56 -21 20 20 -69 87 -118 89 -23 1 -26 3 -9 6 31
6 28 29 -5 41 -23 9 -15 11 47 11 58 1 82 -4 107 -19z m-612 -375 c56 -90 155
-195 184 -195 23 0 23 -1 21 -80 -3 -82 -10 -90 -82 -90 -50 0 -66 -4 -85 -22
-13 -12 -23 -28 -23 -35 0 -8 -8 -13 -17 -11 -15 3 -19 16 -21 66 -2 46 -7 62
-17 62 -8 0 -15 6 -15 14 0 8 -20 31 -44 52 l-44 38 2 75 c1 42 -1 92 -6 111
-9 41 14 81 53 91 37 9 45 3 94 -76z m-518 -1823 c29 -42 78 -111 110 -153 52
-68 64 -79 112 -94 60 -20 146 -85 171 -130 11 -20 27 -32 50 -36 38 -8 37 -7
128 -137 60 -86 192 -314 192 -330 0 -4 -6 2 -12 13 -6 11 -27 45 -47 75 -19
30 -36 61 -37 67 -3 15 -75 116 -86 121 -5 2 -8 9 -8 15 0 7 -14 28 -31 47
-17 19 -40 52 -50 72 -18 36 -49 55 -69 43 -5 -3 -17 4 -27 16 -71 88 -130
137 -185 154 -31 10 -69 30 -84 44 -40 36 -78 38 -120 6 -20 -15 -38 -25 -41
-22 -2 3 5 11 17 17 12 7 19 18 16 25 -3 8 0 17 6 21 7 4 8 3 4 -4 -4 -7 -2
-12 3 -12 17 0 13 24 -7 46 -10 11 -17 25 -14 32 2 8 -6 12 -25 11 -15 0 -22
-3 -15 -6 6 -2 12 -9 12 -15 0 -14 -30 -41 -38 -34 -3 4 0 12 8 17 11 8 12 12
3 16 -18 7 -16 33 3 33 11 0 14 6 8 22 -6 21 -5 22 11 8 18 -14 18 -14 1 13
-12 17 -14 27 -7 27 7 0 10 4 6 10 -3 5 -13 7 -23 4 -14 -5 -14 -4 -3 4 13 9
13 13 1 29 -13 16 -12 16 8 -1 26 -22 28 -15 6 19 -9 14 -12 25 -8 25 5 0 32
-35 61 -78z m1217 -347 c-4 -8 -10 -15 -14 -15 -4 0 -10 -11 -12 -24 -5 -24
12 -30 29 -11 4 4 2 5 -4 1 -8 -5 -13 -1 -13 9 0 11 5 15 14 12 9 -4 17 1 19
11 3 10 5 5 6 -10 0 -15 -7 -38 -16 -50 -40 -49 -103 -108 -117 -108 -7 0 -19
-7 -26 -15 -6 -8 -15 -14 -18 -13 -4 1 -18 -4 -31 -11 -20 -11 -16 -1 24 55
40 56 152 184 162 184 1 0 0 -7 -3 -15z m-1050 -317 c39 -29 79 -57 88 -63 67
-42 115 -75 149 -102 22 -17 49 -35 62 -39 12 -4 27 -14 34 -23 11 -14 14 -14
24 -1 9 12 12 13 16 1 5 -11 7 -11 14 0 7 11 9 11 9 1 0 -8 8 -10 25 -6 18 4
25 2 25 -8 0 -8 12 -20 26 -27 21 -9 25 -17 21 -37 -2 -13 1 -27 6 -31 6 -4
-2 -10 -17 -14 -22 -6 -44 0 -100 28 -39 19 -85 46 -103 59 -17 13 -34 24 -36
24 -10 0 -172 112 -175 121 -2 5 -12 9 -22 9 -10 0 -21 9 -25 19 -3 11 -33 43
-65 72 -54 47 -66 69 -39 69 6 0 43 -24 83 -52z"/>
<path d="M327 928 c4 -27 3 -28 -41 -28 -48 0 -61 -14 -25 -25 11 -4 18 -9 15
-12 -3 -3 -17 2 -32 11 -24 16 -27 16 -44 1 -15 -13 -22 -14 -44 -3 -17 7 -30
8 -34 2 -4 -5 -24 -9 -45 -9 -24 0 -37 -4 -37 -13 0 -9 -7 -11 -20 -7 -20 6
-20 2 -20 -419 l0 -426 477 2 477 3 16 41 c18 47 38 77 63 90 13 7 7 9 -25 8
-49 -2 -76 -11 -100 -31 -17 -15 -35 -2 -24 16 4 5 -3 7 -14 4 -21 -5 -70 39
-70 63 0 8 -4 14 -10 14 -20 0 -9 28 20 51 16 13 30 31 29 39 0 15 -98 97
-111 93 -4 -2 -16 9 -26 22 -26 33 -42 32 -42 -4 0 -44 -9 -59 -31 -54 -10 3
-19 0 -19 -6 0 -6 7 -11 16 -11 8 0 13 -4 10 -9 -4 -5 0 -11 6 -14 20 -7 -8
-32 -37 -32 -30 -1 -30 -1 -8 21 16 16 16 16 -4 10 -12 -4 -24 -2 -28 4 -3 5
-1 10 4 10 6 0 11 5 11 10 0 6 -9 10 -19 10 -11 0 -21 6 -24 13 -2 6 -8 9 -12
5 -4 -3 0 -41 9 -83 19 -94 19 -95 2 -95 -16 0 -28 -37 -15 -46 5 -3 9 -10 9
-16 0 -6 -9 -3 -20 7 -11 10 -24 42 -30 74 -6 31 -18 85 -26 121 -8 36 -20 88
-26 115 -6 28 -19 82 -29 121 -11 38 -19 82 -19 97 0 15 -11 45 -25 67 -30 47
-35 66 -17 62 8 -1 11 2 6 9 -4 7 1 18 11 25 16 12 16 17 4 46 -8 18 -12 39
-11 46 2 6 -1 12 -7 12 -5 0 -11 6 -14 13 -2 6 -2 0 0 -15z"/>
<path d="M1214 105 c-10 -8 -26 -15 -34 -15 -8 0 -28 -12 -45 -26 -16 -15 -42
-31 -57 -36 -52 -19 -28 -28 73 -28 94 0 100 1 94 19 -3 11 -1 22 5 26 6 3 7
11 4 17 -5 7 -2 9 8 6 8 -4 20 2 27 14 12 19 11 20 -17 16 -22 -3 -29 -1 -25
9 7 17 -9 17 -33 -2z"/>
</g>
</svg>
